
<!-- Generator: visioncortex VTracer 0.6.4 -->
<svg version="1.1" xmlns="http://www.w3.org/2000/svg" viewBox="0 0 512 512" preserveAspectRatio="xMidYMid meet">
<path d="M0 0 C0.684 -0.005 1.369 -0.009 2.074 -0.014 C4.367 -0.026 6.659 -0.025 8.952 -0.023 C10.597 -0.029 12.241 -0.036 13.886 -0.043 C18.355 -0.061 22.825 -0.066 27.294 -0.067 C30.09 -0.069 32.886 -0.073 35.683 -0.078 C45.449 -0.097 55.216 -0.105 64.983 -0.103 C74.066 -0.102 83.148 -0.123 92.231 -0.155 C100.042 -0.181 107.853 -0.192 115.664 -0.19 C120.323 -0.19 124.981 -0.195 129.64 -0.217 C134.031 -0.236 138.421 -0.236 142.811 -0.222 C144.414 -0.22 146.016 -0.224 147.618 -0.236 C162.965 -0.345 175.702 2.336 187.187 13.146 C198.297 24.973 199.492 38.11 199.481 53.594 C199.487 55.251 199.494 56.907 199.501 58.563 C199.519 63.045 199.524 67.526 199.525 72.007 C199.527 74.809 199.531 77.61 199.536 80.412 C199.555 90.19 199.563 99.968 199.561 109.746 C199.56 118.855 199.581 127.964 199.613 137.073 C199.639 144.903 199.65 152.732 199.648 160.562 C199.648 165.234 199.653 169.907 199.675 174.579 C199.694 178.971 199.694 183.362 199.68 187.753 C199.677 189.363 199.682 190.973 199.694 192.583 C199.71 194.784 199.7 196.983 199.685 199.184 C199.686 200.414 199.687 201.645 199.688 202.912 C199.088 206.956 197.736 209.102 195.191 212.267 C191.514 214.719 189.724 214.523 185.336 214.535 C184.284 214.542 184.284 214.542 183.211 214.549 C180.855 214.561 178.5 214.56 176.144 214.558 C174.457 214.564 172.77 214.571 171.083 214.578 C166.493 214.596 161.904 214.601 157.315 214.602 C154.446 214.603 151.576 214.608 148.707 214.613 C138.689 214.631 128.672 214.64 118.655 214.638 C109.331 214.637 100.007 214.658 90.682 214.69 C82.67 214.716 74.658 214.726 66.646 214.725 C61.864 214.725 57.083 214.73 52.301 214.751 C47.796 214.771 43.292 214.771 38.787 214.756 C37.141 214.754 35.494 214.759 33.847 214.771 C19.244 214.872 8.429 212.106 -2.809 202.267 C-10.32 194.227 -15.048 184.031 -15.077 173.012 C-15.081 172.304 -15.086 171.596 -15.091 170.866 C-15.103 168.506 -15.102 166.145 -15.1 163.785 C-15.106 162.088 -15.113 160.39 -15.12 158.693 C-15.138 154.092 -15.143 149.491 -15.144 144.89 C-15.145 142.015 -15.15 139.14 -15.155 136.265 C-15.173 126.236 -15.182 116.206 -15.18 106.176 C-15.179 96.826 -15.2 87.476 -15.232 78.126 C-15.258 70.096 -15.268 62.066 -15.267 54.037 C-15.267 49.241 -15.272 44.447 -15.293 39.652 C-15.313 35.144 -15.313 30.638 -15.298 26.131 C-15.296 24.477 -15.301 22.823 -15.313 21.169 C-15.329 18.911 -15.319 16.654 -15.304 14.396 C-15.305 13.133 -15.306 11.869 -15.307 10.568 C-14.714 6.632 -13.627 5.035 -10.809 2.267 C-7.376 -0.171 -4.131 0.011 0 0 Z " fill="#77B8EB" transform="translate(34.80943298339844,277.7325744628906)"/>
<path d="M0 0 C10.877 6.929 17.699 16.558 21 29 C22.138 34.994 22.116 40.863 22.062 46.938 C22.058 47.908 22.053 48.878 22.049 49.877 C22.037 52.251 22.021 54.626 22 57 C23.305 56.977 24.609 56.954 25.953 56.93 C43.217 56.708 58.881 57.399 72.188 69.957 C80.517 79.346 84.589 89.406 84.438 101.875 C84.426 103.189 84.426 103.189 84.415 104.53 C84.103 116.78 79.62 124.62 71.688 133.625 C60.496 143.515 49.619 146.665 34.812 146.25 C33.574 146.232 32.336 146.214 31.061 146.195 C28.04 146.149 25.02 146.083 22 146 C22.01 146.573 22.021 147.147 22.032 147.737 C22.32 165.962 22.572 182.203 9.375 196.375 C-0.897 206.012 -13.056 209.667 -26.926 209.309 C-39.164 208.62 -49.001 202.434 -57.312 193.75 C-63.8 186.094 -67.143 177.441 -67.098 167.484 C-67.094 166.234 -67.091 164.984 -67.088 163.695 C-67.075 161.742 -67.075 161.742 -67.062 159.75 C-67.058 158.433 -67.053 157.115 -67.049 155.758 C-67.037 152.505 -67.021 149.253 -67 146 C-67.791 146.021 -68.581 146.042 -69.396 146.063 C-73.035 146.147 -76.673 146.199 -80.312 146.25 C-81.556 146.284 -82.799 146.317 -84.08 146.352 C-97.289 146.49 -107.628 142.768 -117.383 133.812 C-126.748 124.169 -130.267 113.373 -130.247 100.208 C-130.045 87.966 -125.152 78.201 -116.875 69.25 C-102.671 55.807 -85.263 56.666 -67 57 C-67.021 56.24 -67.042 55.479 -67.063 54.696 C-67.148 51.193 -67.199 47.691 -67.25 44.188 C-67.284 42.992 -67.317 41.796 -67.352 40.564 C-67.487 28.103 -63.988 17.602 -55.562 8.312 C-54.717 7.549 -53.871 6.786 -53 6 C-52.072 5.154 -51.144 4.309 -50.188 3.438 C-36.46 -7.784 -15.193 -8.625 0 0 Z " fill="#006DF0" transform="translate(408,25)"/>
<path d="M0 0 C1.656 -0.006 3.313 -0.013 4.969 -0.02 C9.451 -0.038 13.932 -0.043 18.413 -0.044 C21.214 -0.045 24.016 -0.05 26.817 -0.055 C36.596 -0.073 46.374 -0.082 56.152 -0.08 C65.261 -0.079 74.37 -0.1 83.479 -0.132 C91.309 -0.158 99.138 -0.168 106.968 -0.167 C111.64 -0.167 116.313 -0.172 120.985 -0.194 C125.377 -0.213 129.768 -0.213 134.159 -0.198 C135.769 -0.196 137.379 -0.201 138.989 -0.213 C141.19 -0.229 143.389 -0.219 145.59 -0.204 C147.435 -0.206 147.435 -0.206 149.318 -0.207 C153.362 0.393 155.508 1.745 158.673 4.291 C161.125 7.968 160.929 9.757 160.941 14.145 C160.945 14.846 160.95 15.548 160.954 16.27 C160.967 18.626 160.966 20.982 160.964 23.337 C160.97 25.024 160.977 26.711 160.984 28.398 C161.002 32.988 161.007 37.577 161.008 42.166 C161.009 45.036 161.014 47.905 161.019 50.774 C161.037 60.792 161.046 70.809 161.044 80.826 C161.043 90.15 161.064 99.474 161.095 108.799 C161.122 116.811 161.132 124.823 161.131 132.835 C161.131 137.617 161.136 142.398 161.157 147.18 C161.177 151.685 161.177 156.189 161.162 160.694 C161.16 162.34 161.165 163.987 161.177 165.634 C161.278 180.247 158.503 191.039 148.673 202.291 C140.586 209.972 130.737 214.4 119.658 214.438 C118.952 214.441 118.246 214.445 117.518 214.449 C115.151 214.46 112.784 214.464 110.418 214.468 C108.721 214.474 107.024 214.48 105.327 214.487 C99.756 214.508 94.186 214.519 88.615 214.529 C86.697 214.533 84.779 214.537 82.861 214.541 C73.854 214.56 64.847 214.574 55.84 214.583 C45.44 214.593 35.039 214.619 24.639 214.659 C16.6 214.689 8.562 214.704 0.524 214.708 C-4.278 214.71 -9.08 214.719 -13.881 214.744 C-18.397 214.767 -22.912 214.772 -27.427 214.761 C-29.084 214.761 -30.741 214.767 -32.399 214.781 C-34.661 214.798 -36.922 214.791 -39.185 214.778 C-41.083 214.782 -41.083 214.782 -43.021 214.786 C-46.962 214.195 -48.557 213.112 -51.327 210.291 C-53.775 206.848 -53.583 203.579 -53.594 199.436 C-53.599 198.747 -53.603 198.058 -53.608 197.348 C-53.62 195.039 -53.619 192.73 -53.617 190.421 C-53.623 188.765 -53.63 187.109 -53.638 185.453 C-53.655 180.953 -53.66 176.453 -53.661 171.952 C-53.663 169.137 -53.667 166.322 -53.672 163.507 C-53.691 153.677 -53.699 143.847 -53.697 134.016 C-53.696 124.871 -53.717 115.726 -53.749 106.58 C-53.775 98.718 -53.786 90.855 -53.784 82.993 C-53.784 78.302 -53.789 73.611 -53.811 68.92 C-53.83 64.501 -53.83 60.082 -53.816 55.663 C-53.814 54.049 -53.818 52.435 -53.83 50.821 C-53.937 35.697 -51.076 23.604 -40.448 12.291 C-28.607 1.191 -15.491 -0.011 0 0 Z M-24.202 32.228 C-27.571 37.084 -28.577 40.686 -28.567 46.586 C-28.57 47.855 -28.573 49.124 -28.576 50.432 C-28.568 51.83 -28.561 53.229 -28.554 54.628 C-28.553 56.106 -28.553 57.585 -28.555 59.063 C-28.555 63.071 -28.543 67.079 -28.529 71.087 C-28.517 75.278 -28.516 79.468 -28.513 83.659 C-28.507 91.592 -28.491 99.525 -28.471 107.458 C-28.448 116.491 -28.437 125.523 -28.427 134.556 C-28.406 153.134 -28.371 171.712 -28.327 190.291 C-9.559 190.337 9.208 190.373 27.976 190.394 C36.69 190.404 45.405 190.418 54.119 190.441 C61.716 190.461 69.314 190.474 76.911 190.479 C80.932 190.481 84.953 190.487 88.974 190.502 C92.763 190.516 96.551 190.52 100.34 190.517 C101.727 190.517 103.114 190.521 104.5 190.529 C118.536 190.689 118.536 190.689 130.673 184.291 C135.726 177.9 136.801 172.156 136.794 164.064 C136.795 162.836 136.796 161.608 136.798 160.342 C136.794 158.994 136.791 157.647 136.787 156.299 C136.787 154.869 136.787 153.44 136.787 152.011 C136.788 148.141 136.782 144.272 136.775 140.402 C136.768 136.355 136.768 132.307 136.767 128.259 C136.764 120.598 136.755 112.938 136.745 105.278 C136.734 96.555 136.729 87.832 136.724 79.109 C136.713 61.169 136.696 43.23 136.673 25.291 C117.254 25.197 97.835 25.127 78.415 25.083 C69.398 25.063 60.381 25.035 51.364 24.989 C43.503 24.949 35.642 24.923 27.781 24.914 C23.62 24.909 19.459 24.897 15.299 24.868 C11.378 24.84 7.459 24.832 3.538 24.838 C2.103 24.837 0.668 24.829 -0.767 24.814 C-10.066 24.719 -17.629 24.891 -24.202 32.228 Z " fill="#006CF0" transform="translate(331.32666015625,277.70947265625)"/>
<path d="M0 0 C0.708 -0.005 1.416 -0.009 2.146 -0.014 C4.506 -0.026 6.866 -0.025 9.227 -0.023 C10.924 -0.029 12.621 -0.036 14.319 -0.043 C18.92 -0.061 23.521 -0.066 28.122 -0.067 C30.997 -0.069 33.872 -0.073 36.746 -0.078 C46.776 -0.097 56.806 -0.105 66.836 -0.103 C76.186 -0.102 85.536 -0.123 94.886 -0.155 C102.916 -0.181 110.945 -0.192 118.975 -0.19 C123.77 -0.19 128.565 -0.195 133.36 -0.217 C137.867 -0.236 142.374 -0.236 146.881 -0.222 C148.535 -0.219 150.189 -0.224 151.843 -0.236 C154.101 -0.252 156.358 -0.242 158.616 -0.227 C159.879 -0.228 161.142 -0.229 162.444 -0.23 C166.38 0.363 167.977 1.45 170.744 4.267 C173.183 7.701 173 10.946 173.012 15.077 C173.016 15.761 173.021 16.446 173.026 17.151 C173.038 19.443 173.037 21.736 173.035 24.029 C173.041 25.673 173.048 27.318 173.055 28.962 C173.073 33.432 173.078 37.901 173.079 42.371 C173.08 45.167 173.085 47.963 173.09 50.759 C173.108 60.526 173.117 70.293 173.115 80.06 C173.114 89.143 173.135 98.225 173.166 107.308 C173.193 115.119 173.203 122.929 173.202 130.74 C173.202 135.399 173.207 140.058 173.228 144.717 C173.248 149.108 173.248 153.498 173.233 157.888 C173.231 159.491 173.236 161.093 173.248 162.695 C173.357 178.042 170.676 190.779 159.865 202.264 C148.038 213.374 134.901 214.569 119.418 214.558 C117.761 214.564 116.105 214.571 114.448 214.578 C109.967 214.596 105.486 214.601 101.005 214.602 C98.203 214.603 95.402 214.608 92.6 214.613 C82.822 214.631 73.044 214.64 63.266 214.638 C54.157 214.637 45.048 214.658 35.939 214.69 C28.109 214.716 20.28 214.726 12.45 214.725 C7.777 214.725 3.105 214.73 -1.568 214.751 C-5.959 214.771 -10.35 214.771 -14.741 214.756 C-16.352 214.754 -17.962 214.759 -19.572 214.771 C-21.772 214.787 -23.971 214.777 -26.172 214.762 C-27.402 214.763 -28.633 214.764 -29.9 214.765 C-33.945 214.165 -36.09 212.813 -39.256 210.267 C-41.707 206.59 -41.511 204.801 -41.523 200.413 C-41.528 199.712 -41.532 199.01 -41.537 198.288 C-41.549 195.932 -41.548 193.576 -41.546 191.221 C-41.552 189.534 -41.559 187.847 -41.567 186.16 C-41.584 181.57 -41.589 176.981 -41.59 172.392 C-41.592 169.522 -41.596 166.653 -41.601 163.784 C-41.62 153.766 -41.628 143.749 -41.626 133.732 C-41.625 124.408 -41.646 115.083 -41.678 105.759 C-41.704 97.747 -41.715 89.735 -41.713 81.723 C-41.713 76.941 -41.718 72.16 -41.74 67.378 C-41.759 62.873 -41.759 58.369 -41.745 53.864 C-41.743 52.218 -41.747 50.571 -41.759 48.924 C-41.86 34.32 -39.094 23.506 -29.256 12.267 C-21.215 4.757 -11.019 0.029 0 0 Z M-11.256 30.267 C-16.308 36.658 -17.383 42.402 -17.376 50.494 C-17.377 51.722 -17.379 52.95 -17.38 54.216 C-17.377 55.564 -17.373 56.911 -17.369 58.259 C-17.369 59.689 -17.369 61.118 -17.37 62.547 C-17.37 66.417 -17.364 70.286 -17.357 74.156 C-17.351 78.203 -17.35 82.251 -17.349 86.299 C-17.346 93.959 -17.338 101.62 -17.328 109.28 C-17.316 118.003 -17.311 126.726 -17.306 135.449 C-17.296 153.389 -17.278 171.328 -17.256 189.267 C2.164 189.361 21.583 189.431 41.003 189.475 C50.02 189.495 59.037 189.523 68.054 189.569 C75.915 189.609 83.776 189.635 91.637 189.644 C95.798 189.649 99.958 189.661 104.119 189.69 C108.039 189.718 111.959 189.726 115.879 189.72 C117.314 189.721 118.749 189.729 120.184 189.744 C132.192 189.878 132.192 189.878 142.253 183.855 C146.683 178.91 147.996 174.494 147.985 167.972 C147.988 166.703 147.99 165.434 147.993 164.126 C147.986 162.728 147.979 161.329 147.971 159.93 C147.971 158.452 147.971 156.973 147.972 155.495 C147.973 151.487 147.961 147.479 147.947 143.471 C147.935 139.28 147.933 135.09 147.931 130.899 C147.925 122.966 147.908 115.033 147.888 107.1 C147.866 98.067 147.855 89.035 147.845 80.002 C147.824 61.424 147.789 42.846 147.744 24.267 C128.977 24.221 110.209 24.185 91.442 24.164 C82.727 24.153 74.013 24.139 65.299 24.117 C57.701 24.097 50.104 24.084 42.507 24.079 C38.486 24.077 34.465 24.071 30.444 24.056 C26.655 24.042 22.866 24.038 19.077 24.041 C17.691 24.041 16.304 24.037 14.917 24.029 C0.881 23.869 0.881 23.869 -11.256 30.267 Z " fill="#006DF0" transform="translate(61.25563049316406,19.732574462890625)"/>
<path d="M0 0 C0.684 -0.005 1.369 -0.009 2.074 -0.014 C4.367 -0.026 6.659 -0.025 8.952 -0.023 C10.597 -0.029 12.241 -0.036 13.886 -0.043 C18.355 -0.061 22.825 -0.066 27.294 -0.067 C30.09 -0.069 32.886 -0.073 35.683 -0.078 C45.449 -0.097 55.216 -0.105 64.983 -0.103 C74.066 -0.102 83.148 -0.123 92.231 -0.155 C100.042 -0.181 107.853 -0.192 115.664 -0.19 C120.323 -0.19 124.981 -0.195 129.64 -0.217 C134.031 -0.236 138.421 -0.236 142.811 -0.222 C144.414 -0.22 146.016 -0.224 147.618 -0.236 C162.965 -0.345 175.702 2.336 187.187 13.146 C198.297 24.973 199.492 38.11 199.481 53.594 C199.487 55.251 199.494 56.907 199.501 58.563 C199.519 63.045 199.524 67.526 199.525 72.007 C199.527 74.809 199.531 77.61 199.536 80.412 C199.555 90.19 199.563 99.968 199.561 109.746 C199.56 118.855 199.581 127.964 199.613 137.073 C199.639 144.903 199.65 152.732 199.648 160.562 C199.648 165.234 199.653 169.907 199.675 174.579 C199.694 178.971 199.694 183.362 199.68 187.753 C199.677 189.363 199.682 190.973 199.694 192.583 C199.71 194.784 199.7 196.983 199.685 199.184 C199.686 200.414 199.687 201.645 199.688 202.912 C199.088 206.956 197.736 209.102 195.191 212.267 C191.514 214.719 189.724 214.523 185.336 214.535 C184.284 214.542 184.284 214.542 183.211 214.549 C180.855 214.561 178.5 214.56 176.144 214.558 C174.457 214.564 172.77 214.571 171.083 214.578 C166.493 214.596 161.904 214.601 157.315 214.602 C154.446 214.603 151.576 214.608 148.707 214.613 C138.689 214.631 128.672 214.64 118.655 214.638 C109.331 214.637 100.007 214.658 90.682 214.69 C82.67 214.716 74.658 214.726 66.646 214.725 C61.864 214.725 57.083 214.73 52.301 214.751 C47.796 214.771 43.292 214.771 38.787 214.756 C37.141 214.754 35.494 214.759 33.847 214.771 C19.244 214.872 8.429 212.106 -2.809 202.267 C-10.32 194.227 -15.048 184.031 -15.077 173.012 C-15.081 172.304 -15.086 171.596 -15.091 170.866 C-15.103 168.506 -15.102 166.145 -15.1 163.785 C-15.106 162.088 -15.113 160.39 -15.12 158.693 C-15.138 154.092 -15.143 149.491 -15.144 144.89 C-15.145 142.015 -15.15 139.14 -15.155 136.265 C-15.173 126.236 -15.182 116.206 -15.18 106.176 C-15.179 96.826 -15.2 87.476 -15.232 78.126 C-15.258 70.096 -15.268 62.066 -15.267 54.037 C-15.267 49.241 -15.272 44.447 -15.293 39.652 C-15.313 35.144 -15.313 30.638 -15.298 26.131 C-15.296 24.477 -15.301 22.823 -15.313 21.169 C-15.329 18.911 -15.319 16.654 -15.304 14.396 C-15.305 13.133 -15.306 11.869 -15.307 10.568 C-14.714 6.632 -13.627 5.035 -10.809 2.267 C-7.376 -0.171 -4.131 0.011 0 0 Z M9.191 24.267 C9.097 43.817 9.027 63.367 8.983 82.917 C8.963 91.995 8.935 101.072 8.889 110.15 C8.849 118.063 8.823 125.977 8.814 133.891 C8.809 138.08 8.797 142.268 8.768 146.457 C8.74 150.403 8.732 154.349 8.738 158.296 C8.737 159.741 8.729 161.185 8.714 162.63 C8.633 170.596 8.764 176.506 13.191 183.267 C15.114 185.345 15.114 185.345 17.253 186.705 C17.925 187.178 18.596 187.651 19.288 188.139 C22.996 190.339 26.066 190.391 30.284 190.388 C31.559 190.389 32.833 190.39 34.146 190.392 C35.562 190.388 36.977 190.385 38.392 190.381 C39.881 190.381 41.369 190.381 42.857 190.381 C46.9 190.382 50.943 190.376 54.986 190.369 C59.21 190.363 63.434 190.362 67.658 190.361 C75.659 190.358 83.659 190.349 91.659 190.339 C100.767 190.328 109.874 190.323 118.982 190.318 C137.718 190.307 156.454 190.29 175.191 190.267 C175.284 170.848 175.355 151.429 175.398 132.009 C175.418 122.992 175.447 113.975 175.492 104.958 C175.532 97.097 175.558 89.236 175.567 81.375 C175.572 77.214 175.584 73.053 175.613 68.893 C175.641 64.972 175.649 61.053 175.643 57.133 C175.644 55.697 175.652 54.262 175.667 52.827 C175.759 43.869 175.501 37.262 169.444 30.244 C168.607 29.575 168.607 29.575 167.753 28.892 C167.197 28.431 166.642 27.969 166.069 27.494 C161.745 24.671 158.016 24.018 152.895 24.027 C151.626 24.024 150.357 24.021 149.049 24.019 C147.651 24.026 146.252 24.033 144.853 24.04 C143.375 24.041 141.896 24.041 140.418 24.039 C136.41 24.039 132.402 24.051 128.394 24.065 C124.204 24.077 120.013 24.078 115.822 24.081 C107.889 24.087 99.956 24.103 92.023 24.123 C82.99 24.146 73.958 24.157 64.925 24.167 C46.347 24.188 27.769 24.223 9.191 24.267 Z " fill="#006DF0" transform="translate(34.80943298339844,277.7325744628906)"/>
<path d="M0 0 C4.684 2.687 7.683 5.988 9.803 11.027 C10.886 15.125 10.966 18.846 10.961 23.062 C10.981 24.747 11.002 26.432 11.023 28.117 C11.046 30.75 11.063 33.383 11.068 36.017 C11.078 38.574 11.112 41.13 11.148 43.688 C11.141 44.86 11.141 44.86 11.133 46.055 C11.226 51.262 12.244 54.247 15.688 58.375 C19.65 61.017 23.072 60.635 27.668 60.613 C29.49 60.629 31.313 60.645 33.135 60.662 C36.001 60.679 38.866 60.688 41.732 60.68 C44.503 60.678 47.272 60.706 50.043 60.738 C50.889 60.728 51.735 60.718 52.607 60.707 C58.748 60.807 62.96 62.406 67.688 66.375 C72.511 71.833 74.072 76.593 73.957 83.746 C73.427 88.917 71.564 92.642 67.746 96.168 C61.784 100.79 57.344 101.506 49.855 101.516 C48.07 101.534 46.284 101.554 44.498 101.574 C41.687 101.603 38.877 101.625 36.065 101.625 C33.349 101.629 30.634 101.663 27.918 101.703 C27.083 101.696 26.249 101.689 25.389 101.682 C21.271 101.767 18.485 102.097 15.173 104.667 C10.979 109.237 11.532 113.889 11.477 119.867 C11.448 121.559 11.42 123.25 11.391 124.941 C11.349 127.597 11.312 130.251 11.286 132.907 C11.258 135.477 11.213 138.047 11.164 140.617 C11.161 141.405 11.158 142.193 11.154 143.004 C11.018 149.158 9.516 153.242 5.438 158 C0.108 162.602 -3.955 165.128 -11.047 164.754 C-17.62 163.655 -21.909 160.283 -26.086 155.254 C-29.332 150.281 -29.617 145.597 -29.656 139.785 C-29.671 138.963 -29.685 138.141 -29.701 137.294 C-29.747 134.675 -29.781 132.056 -29.812 129.438 C-29.854 125.991 -29.908 122.544 -29.969 119.098 C-29.974 118.313 -29.979 117.529 -29.985 116.72 C-30.064 112.306 -30.221 108.362 -32.312 104.375 C-36.964 101.933 -41.797 102.095 -46.93 102.102 C-48.605 102.081 -50.281 102.06 -51.957 102.039 C-54.572 102.017 -57.188 102 -59.803 101.994 C-62.346 101.985 -64.887 101.951 -67.43 101.914 C-68.201 101.919 -68.972 101.924 -69.766 101.929 C-76.23 101.814 -81.414 99.877 -86.336 95.629 C-90.87 89.955 -92.948 85.87 -92.312 78.375 C-90.853 72.782 -88.666 67.559 -83.657 64.297 C-78.38 61.458 -74.149 60.821 -68.211 60.906 C-66.951 60.896 -66.951 60.896 -65.665 60.885 C-63.006 60.863 -60.347 60.866 -57.688 60.875 C-54.174 60.887 -50.662 60.873 -47.148 60.844 C-46.351 60.855 -45.554 60.866 -44.733 60.878 C-39.488 60.831 -36.425 59.925 -32.312 56.375 C-29.428 52.743 -30.034 48.165 -30.039 43.734 C-30.019 42.007 -29.998 40.279 -29.977 38.551 C-29.954 35.841 -29.938 33.131 -29.932 30.421 C-29.922 27.796 -29.888 25.172 -29.852 22.547 C-29.857 21.748 -29.862 20.948 -29.867 20.125 C-29.753 13.536 -27.98 8.073 -23.277 3.316 C-22.274 2.634 -22.274 2.634 -21.25 1.938 C-20.243 1.228 -20.243 1.228 -19.215 0.504 C-13.45 -2.917 -6.007 -2.752 0 0 Z " fill="#77B8EB" transform="translate(394.3125,45.625)"/>
</svg>